<?xml version="1.0" encoding="utf-8"?>
<!-- Generator: Adobe Illustrator 14.0.0, SVG Export Plug-In . SVG Version: 6.00 Build 43363)  -->
<!DOCTYPE svg PUBLIC "-//W3C//DTD SVG 1.1//EN" "http://www.w3.org/Graphics/SVG/1.1/DTD/svg11.dtd">
<svg version="1.1" id="Layer_1" xmlns="http://www.w3.org/2000/svg" xmlns:xlink="http://www.w3.org/1999/xlink" x="0px" y="0px"
	 width="828.461px" height="248.462px" viewBox="0 0 828.461 248.462" enable-background="new 0 0 828.461 248.462"
	 xml:space="preserve">
<g>
	<path fill="#3E3D40" d="M609.431,185.539V76.452c0-9.092-3.651-17.147-9.583-23.122c-5.97-5.954-14.027-9.562-23.12-9.562h-45.773
		v141.771h-39.229V4.524l85.003-0.008c19.817-0.012,37.9,8.085,50.868,21.076c12.992,12.967,21.087,31.06,21.064,50.86v109.087l0,0
		H609.431z"/>
	<path fill="#3E3D40" d="M340.629,52.323c-5.931,5.963-9.562,14.017-9.562,23.1v39.253c0,9.083,3.631,17.12,9.562,23.1
		c5.972,5.955,14.029,9.574,23.119,9.586h45.776c9.091-0.021,17.122-3.631,23.117-9.586c5.95-5.98,9.561-14.017,9.561-23.113v-39.24
		c0-9.083-3.61-17.136-9.561-23.1c-5.995-5.956-14.025-9.574-23.117-9.586h-45.776C354.659,42.749,346.602,46.367,340.629,52.323
		 M312.901,165.516c-12.988-12.943-21.083-31.045-21.083-50.84V75.422c0-19.8,8.095-37.891,21.083-50.864
		c12.946-12.979,31.053-21.07,50.847-21.062h45.776c19.792-0.008,37.898,8.083,50.866,21.062
		c12.965,12.973,21.063,31.064,21.043,50.864v39.24c0.021,19.808-8.078,37.91-21.043,50.853
		c-12.968,12.993-31.074,21.075-50.866,21.075h-45.776h-0.037C343.933,186.591,325.825,178.498,312.901,165.516"/>
	<rect x="242.293" y="4.524" fill="#3E3D40" width="39.25" height="181.015"/>
	<path fill="#E01B26" d="M178.62,6.606h-19.59c2.298,1.49,4.522,3.112,6.585,4.995c10.292,9.414,16.002,22.575,17.839,37.847v-38.02
		C183.454,8.771,181.289,6.606,178.62,6.606 M178.62,185.539c2.669,0,4.834-2.16,4.834-4.818V73.008
		c-3.427,33.062-19.88,72.814-47.039,112.531H178.62z M9.352,6.606c-2.691,0-4.829,2.165-4.829,4.822v37.415
		C29.333,29.658,54.312,15.265,77.592,6.606H9.352z M67.096,149.879l-18.188,18.209c-2.631,2.617-6.913,2.617-9.545,0
		l-18.205-18.209c-2.632-2.641-2.632-6.9,0-9.541l18.205-18.212c2.632-2.619,6.914-2.619,9.545,0l18.188,18.212
		C69.723,142.979,69.723,147.238,67.096,149.879 M159.679,78.003c-0.042-18.422-5.324-32.984-15.819-42.573
		c-9.036-8.239-21.185-12.267-36.253-12.31C79.734,23.143,43.155,38.006,7.397,65.097l-2.874,2.181v113.443
		c0,2.658,2.138,4.818,4.829,4.818h109.734c26.321-38.463,40.637-77.451,40.593-107.272V78.003z"/>
	<path fill="#3E3D40" d="M691.009,239.676c-2.696,2.834-6.013,4.027-9.771,4.027c-3.669,0-6.852-1.336-9.297-3.782
		c-3.486-3.487-3.422-7.422-3.422-14.24c0-6.813-0.064-10.749,3.422-14.232c2.445-2.438,5.525-3.781,9.297-3.781
		c7.549,0,11.909,4.923,12.908,10.997h-5.423c-0.896-3.883-3.487-6.178-7.485-6.178c-2.077,0-3.977,0.846-5.213,2.192
		c-1.732,1.897-2.143,3.882-2.143,11.002c0,7.122,0.41,9.153,2.143,11.061c1.236,1.337,3.136,2.141,5.213,2.141
		c2.374,0,4.386-0.899,5.791-2.499c1.284-1.488,1.792-3.293,1.792-5.576v-1.988h-7.583v-4.578h12.951v5.436
		C694.189,234.24,693.351,237.188,691.009,239.676"/>
	<path fill="#3E3D40" d="M715.471,212.781h-7.949v11.111h7.949c3.588,0,6.038-2.047,6.038-5.535
		C721.509,214.883,719.059,212.781,715.471,212.781 M721.713,243.408l-7.479-14.945h-6.712v14.945h-5.381V207.96h13.74
		c6.725,0,10.991,4.334,10.991,10.349c0,5.086-3.077,8.32-7.059,9.421l8.155,15.679H721.713z"/>
	<path fill="#3E3D40" d="M751.5,214.679c-1.241-1.337-3.183-2.192-5.282-2.192c-2.098,0-4.031,0.855-5.282,2.192
		c-1.728,1.897-2.073,3.882-2.073,11.002c0,7.122,0.346,9.112,2.073,11.01c1.251,1.345,3.185,2.191,5.282,2.191
		c2.1,0,4.041-0.847,5.282-2.191c1.729-1.897,2.079-3.888,2.079-11.01C753.579,218.561,753.229,216.576,751.5,214.679
		 M755.583,239.921c-2.428,2.446-5.572,3.782-9.366,3.782c-3.792,0-6.869-1.336-9.297-3.782c-3.489-3.487-3.443-7.422-3.443-14.24
		c0-6.813-0.046-10.749,3.443-14.232c2.428-2.438,5.505-3.781,9.297-3.781c3.794,0,6.938,1.343,9.366,3.781
		c3.482,3.483,3.379,7.419,3.379,14.232C758.962,232.499,759.066,236.434,755.583,239.921"/>
	<path fill="#3E3D40" d="M779.106,243.703c-7.219,0-12.701-4.924-12.701-12.244V207.96h5.38v23.245c0,4.729,2.897,7.677,7.321,7.677
		c4.422,0,7.362-2.948,7.362-7.677V207.96h5.379v23.499C791.847,238.779,786.318,243.703,779.106,243.703"/>
	<path fill="#3E3D40" d="M813.724,212.795h-7.762v11.791h7.762c3.737,0,6.285-2.139,6.285-5.871
		C820.009,214.986,817.461,212.795,813.724,212.795 M814.032,229.461h-8.069v13.938h-5.381V207.96h13.45
		c6.916,0,11.336,4.587,11.336,10.755C825.368,224.885,820.948,229.461,814.032,229.461"/>
	<path fill="#E01B26" d="M641.908,205.17c3.731,0,6.753,3.014,6.753,6.744v25.746c0,3.719-3.021,6.737-6.732,6.737h-25.751
		c-3.729,0-6.746-3.019-6.746-6.737v-25.746c0-3.73,3.017-6.744,6.746-6.744H641.908z"/>
</g>
</svg>
