<?xml version="1.0" encoding="UTF-8" standalone="no"?>
<svg
   xmlns:dc="http://purl.org/dc/elements/1.1/"
   xmlns:cc="http://creativecommons.org/ns#"
   xmlns:rdf="http://www.w3.org/1999/02/22-rdf-syntax-ns#"
   xmlns:svg="http://www.w3.org/2000/svg"
   xmlns="http://www.w3.org/2000/svg"
   xmlns:sodipodi="http://sodipodi.sourceforge.net/DTD/sodipodi-0.dtd"
   xmlns:inkscape="http://www.inkscape.org/namespaces/inkscape"
   id="svg4261"
   version="1.1"
   viewBox="0 0 45.089569 74.075035"
   height="74.075035mm"
   width="45.089569mm"
   sodipodi:docname="scroll-mouse.svg"
   inkscape:version="0.92.2 (30a58d1, 2017-08-07)">
  <sodipodi:namedview
     pagecolor="#ffffff"
     bordercolor="#666666"
     borderopacity="1"
     objecttolerance="10"
     gridtolerance="10"
     guidetolerance="10"
     inkscape:pageopacity="0"
     inkscape:pageshadow="2"
     inkscape:window-width="1920"
     inkscape:window-height="1052"
     id="namedview4433"
     showgrid="true"
     inkscape:zoom="1.6793786"
     inkscape:cx="39.206937"
     inkscape:cy="212.8402"
     inkscape:window-x="2560"
     inkscape:window-y="320"
     inkscape:window-maximized="1"
     inkscape:current-layer="svg4261"
     showguides="true"
     inkscape:guide-bbox="true"
     inkscape:pagecheckerboard="true">
    <sodipodi:guide
       position="22.529415,65.61889"
       orientation="1,0"
       id="guide4585"
       inkscape:locked="false" />
    <inkscape:grid
       type="xygrid"
       id="grid4602" />
  </sodipodi:namedview>
  <defs
     id="defs4255">
    <clipPath
       id="clipPath3774"
       clipPathUnits="userSpaceOnUse">
      <path
         id="path3772"
         d="M 0,0 H 5833 V 4083 H 0 Z" />
    </clipPath>
    <clipPath
       id="clipPath3780"
       clipPathUnits="userSpaceOnUse">
      <path
         id="path3778"
         d="M 5833.33,0 H 0 V 4083.33 H 5833.33 V 0 M 3499.07,37.7109 c 0,0 -5.85,-3.2578 -5.85,-10.2812 0,-10.6563 13.07,-19.84767 30.57,-19.84767 27.4,0 49.05,16.05467 54.24,47.64847 l 8.16,51.5705 4.96,31.324 c 0,0 -3.28,2.949 -6.83,2.949 -4.56,0 -17.62,-4.605 -27.5,-6.441 0,0 -0.68,-12.504 -3.09,-27.832 0,0 -6.5,-33.0627 -18.03,-33.0627 -2.41,0 -2.92,1.4961 -2.5,4.1562 l 4.59,28.9065 4.95,31.324 c 0,0 -3.28,2.949 -6.82,2.949 -4.56,0 -17.62,-4.605 -27.51,-6.441 0,0 -0.67,-12.504 -3.11,-27.832 l -3.95,-25.0315 c -3.66,-23.1211 2.53,-34.5 16.44,-34.5 12.37,0 22.17,8.6211 29.56,19.25 l -2.06,-12.9257 c -2.62,-16.6055 -17.54,-21.2969 -28.54,-21.2969 -11.73,0 -17.68,5.414 -17.68,5.414 m -651.21,3.1094 1.44,-12.6172 c 2.98,-0.6445 6.02,-0.9687 9.11,-0.9687 3.07,0 5.8,0.3242 8.23,0.9687 2.43,0.6524 4.48,1.5625 6.14,2.7305 1.66,1.168 3.14,2.6836 4.42,4.5547 1.28,1.875 2.62,4.5859 4.04,8.1445 l 3.84,10.6094 21.5,58.6058 h -16.69 l -14.21,-43.2386 -14.57,43.2386 h -17.15 l 23.17,-61.0746 c -0.95,-3.4023 -2.33,-6.1992 -4.13,-8.4023 -1.79,-2.1914 -4.57,-3.2969 -8.31,-3.2969 -2.03,0 -4.3,0.25 -6.83,0.7461 m -368.55,7.1133 c -0.04,-0.7656 -0.06,-1.418 -0.06,-1.9492 0,-5.4297 2.16,-9.9102 6.48,-13.4453 4.32,-3.5352 11.64,-5.3047 21.96,-5.3047 5.47,0 9.99,0.5703 13.56,1.7187 3.58,1.1485 6.43,2.7305 8.57,4.7578 2.14,2.0274 3.81,4.8204 5,8.3711 1.18,3.5547 1.77,8.9258 1.77,16.1172 v 54.6488 h -15.08 v -8.547 c -4.89,6.617 -11.11,9.922 -18.63,9.922 -7.31,0 -13.42,-2.7 -18.33,-8.086 -4.91,-5.391 -7.37,-13.1917 -7.37,-23.3948 0,-8.1445 1.88,-14.9492 5.62,-20.418 4.78,-6.9179 11.26,-10.3789 19.45,-10.3789 7.33,0 13.41,3.2891 18.23,9.8633 v -8.8867 c 0,-3.5938 -0.25,-6.0586 -0.75,-7.3985 -0.72,-1.875 -1.79,-3.2265 -3.21,-4.0703 -2.1,-1.2617 -5.25,-1.8906 -9.46,-1.8906 -3.29,0 -5.69,0.5703 -7.22,1.7227 -1.11,0.7968 -1.82,2.2695 -2.13,4.4101 l -18.4,2.2383 m 958.67,8.7148 c 9.72,-3.2851 19.02,-9.3789 31.8,-9.3789 9.8,0 21.51,3.6172 21.51,17.4375 0,10.3633 -6.78,16.625 -6.78,16.625 0,0 -5.06,-6.9961 -15.89,-6.9961 -4.08,0 -8.19,1 -12.6,2.2383 20.86,22.4961 40.17,42.6528 40.17,54.1918 0,9.867 -14.54,10.308 -14.54,10.308 l -6.04,-7.254 c -7.46,3.266 -15.04,7.254 -25.36,7.254 -9.74,0 -22.14,-3.57 -22.86,-16.605 -0.52,-9.406 5.76,-16.633 5.76,-16.633 0,0 4.73,6.105 16.95,6.105 2.15,0 4.52,-0.304 7,-0.753 -21.49,-23.2544 -41.43,-43.7739 -41.43,-55.7427 0,-9.8125 14.4,-10.1758 14.4,-10.1758 2.54,3.1211 5.2,6.2618 7.91,9.3789 m -47.49,84.4256 c -31.66,0 -49.47,-34.07 -49.47,-59.1873 0,-21.7422 13.3,-34.6172 33.68,-34.6172 20.09,0 37.35,12.2149 37.35,23.4727 0,6.3437 -5.55,9.4375 -5.55,9.4375 0,0 -7.26,-8.1992 -18.13,-8.1992 -8.87,0 -14.21,4.1523 -15.73,12.6523 l 19.73,4.0703 c 18.79,3.875 26.33,12.8089 26.33,26.3199 h 0.01 v 0 c 0,15.782 -10.87,26.051 -28.22,26.051 m -80.44,0 c -31.67,0 -49.47,-34.07 -49.47,-59.1873 0,-21.7422 13.3,-34.6172 33.68,-34.6172 20.08,0 37.35,12.2149 37.35,23.4727 0,6.3437 -5.55,9.4375 -5.55,9.4375 0,0 -7.27,-8.1992 -18.14,-8.1992 -8.86,0 -14.19,4.1523 -15.72,12.6523 l 19.73,4.0703 c 18.79,3.875 26.33,12.8089 26.33,26.3199 h 0.01 v 0 c 0,15.782 -10.88,26.051 -28.22,26.051 m -99.48,-1.808 c -3.9,0 -7.09,-2.723 -8.3,-6.586 l -4.73,-15.055 h 10.87 l -6.53,-41.2734 c -2.93,-18.5039 4.05,-29.0821 21.33,-29.0821 16.29,0 29.17,8.9649 29.17,17.9922 0,5.8516 -5.59,8.9688 -5.59,8.9688 0,0 -3.6,-2.25 -7.27,-2.25 -0.02,0 -0.04,0 -0.06,0 -4.06,0.039 -5.36,2.8047 -4.41,8.7656 l 5.84,36.8789 h 10.48 c 4.7,0 7.01,2.566 8.47,7.211 l 4.52,14.43 h -20.05 l 3.01,18.929 c 0,0 -2.56,2.938 -6.41,2.938 -3.56,0 -10.87,-2.516 -18.71,-4.442 l -6.34,-17.425 h -5.29 m -46.44,1.808 c -32.18,-0.004 -50.38,-34.074 -50.38,-59.5232 0,-21.4063 12.66,-34.2813 33.23,-34.2813 19.31,0 35.89,11.4883 35.89,22.2657 0,6.1679 -5.55,9.2578 -5.55,9.2578 0,0 -6.16,-6.8125 -16.16,-6.8125 -9.75,0 -13.71,6.7773 -13.71,21.8437 0,16.3598 4.36,24.0308 11.94,24.0308 11.2,0 16.08,-15.023 16.08,-15.023 0,0 16.65,5.031 16.65,18.781 0,10.996 -12.01,19.461 -27.99,19.461 0.01,0 0.01,0 0.01,0 h -0.01 v 0 m -81.31,0 c -31.67,0 -49.46,-34.07 -49.46,-59.1873 0,-21.7422 13.29,-34.6172 33.66,-34.6172 20.09,0 37.36,12.2149 37.36,23.4727 0,6.3437 -5.55,9.4375 -5.55,9.4375 0,0 -7.27,-8.1992 -18.13,-8.1992 -8.87,0 -14.21,4.1523 -15.72,12.6523 l 19.72,4.0703 c 18.79,3.875 26.34,12.8089 26.34,26.3199 0,15.782 -10.87,26.051 -28.22,26.051 m -103.36,35.176 c -4.51,0 -19.58,-0.91 -31.63,-0.91 L 2967.7,51.2383 c 0,0 3.25,-3.0703 6.76,-3.0703 3.73,0 19,0.9062 25.36,0.9062 l 58.11,124.1018 c 0,0 -3.25,3.074 -6.77,3.074 h -0.01 c -4.13,0 -17.43,-0.895 -28.14,-0.895 l -24.15,-61.441 c -2.11,-5.34 -4.25,-13.238 -6.21,-21.5859 0.21,7.6485 0.17,14.9059 -0.35,20.1329 l -6.07,60.715 c 0,0 -3.23,3.074 -6.77,3.074 M 2796.48,60.8906 c 2.45,-3.3984 5.36,-5.9726 8.75,-7.707 3.38,-1.7383 6.81,-2.6133 10.29,-2.6133 7.07,0 13.09,2.8086 18.03,8.4297 4.95,5.6211 7.43,13.6289 7.43,24.0313 0,10.0468 -2.43,17.7617 -7.28,23.1367 -4.86,5.367 -10.99,8.055 -18.41,8.055 -6.81,0 -12.69,-2.832 -17.66,-8.489 v 30.278 h -16.12 V 51.9453 h 14.97 v 8.9453 m -91.87,53.3324 c -7.41,0 -13.55,-2.688 -18.4,-8.055 -4.85,-5.375 -7.28,-13.2227 -7.28,-23.543 0,-10.0898 2.49,-17.9609 7.48,-23.5898 4.98,-5.6485 10.98,-8.4649 17.97,-8.4649 3.44,0 6.86,0.8555 10.24,2.5508 3.38,1.6992 6.32,4.293 8.81,7.7695 v -8.9453 h 14.96 v 84.0667 h -16.12 v -30.278 c -4.97,5.657 -10.85,8.489 -17.66,8.489 m -61.81,0 c -8.07,0 -14.74,-2.86 -20.01,-8.578 -5.28,-5.7153 -7.92,-13.6177 -7.92,-23.7075 0,-8.4492 2.01,-15.4453 6.02,-20.9883 5.09,-6.9219 12.92,-10.3789 23.51,-10.3789 6.69,0 12.26,1.5352 16.72,4.6133 4.45,3.0781 7.71,7.5625 9.77,13.4492 l -16.05,2.6953 c -0.88,-3.0586 -2.18,-5.2734 -3.9,-6.6484 -1.73,-1.3789 -3.84,-2.0664 -6.37,-2.0664 -3.7,0 -6.8,1.3242 -9.28,3.9883 -2.49,2.6484 -3.79,6.3711 -3.91,11.1484 h 40.37 c 0.23,12.3516 -2.27,21.5117 -7.51,27.5 -5.24,5.977 -12.38,8.973 -21.44,8.973 m -244.75,-42.4339 -16.17,-2.4688 c 1.49,-5.7695 4.65,-10.3398 9.49,-13.7031 4.83,-3.3633 11.4,-5.0469 19.69,-5.0469 9.14,0 16.04,2.0078 20.7,6.0195 4.67,4.0157 7,8.8165 7,14.3946 0,5.125 -1.69,9.1211 -5.05,11.9883 -3.4,2.8242 -9.39,5.2148 -17.98,7.164 -8.58,1.9492 -13.6,3.461 -15.05,4.5313 -1.07,0.8047 -1.6,1.7773 -1.6,2.9258 0,1.3359 0.61,2.4262 1.83,3.2692 1.84,1.184 4.88,1.774 9.12,1.774 3.36,0 5.95,-0.629 7.77,-1.891 1.82,-1.2616 3.05,-3.0741 3.7,-5.4452 l 15.2,2.8086 c -1.53,5.3126 -4.32,9.3246 -8.38,12.0386 -4.05,2.719 -10.24,4.075 -18.58,4.075 -8.75,0 -15.21,-1.797 -19.38,-5.391 -4.16,-3.594 -6.25,-8.027 -6.25,-13.3007 0,-5.8516 2.41,-10.4219 7.23,-13.7071 3.47,-2.3711 11.71,-4.9922 24.71,-7.8554 2.79,-0.6524 4.59,-1.3594 5.39,-2.1211 0.76,-0.8047 1.15,-1.8164 1.15,-3.043 0,-1.7969 -0.71,-3.2305 -2.13,-4.3008 -2.1,-1.5273 -5.23,-2.293 -9.4,-2.293 -3.78,0 -6.73,0.8086 -8.83,2.4454 -2.1,1.6132 -3.5,4 -4.18,7.1328 m -50.24,42.4339 c -8.06,0 -14.74,-2.86 -20.01,-8.578 -5.28,-5.7153 -7.91,-13.6177 -7.91,-23.7075 0,-8.4492 2,-15.4453 6.02,-20.9883 5.08,-6.9219 12.92,-10.3789 23.51,-10.3789 6.69,0 12.26,1.5352 16.71,4.6133 4.46,3.0781 7.72,7.5625 9.78,13.4492 l -16.05,2.6953 c -0.88,-3.0586 -2.18,-5.2734 -3.91,-6.6484 -1.72,-1.3789 -3.84,-2.0664 -6.36,-2.0664 -3.71,0 -6.8,1.3242 -9.29,3.9883 -2.48,2.6484 -3.78,6.3711 -3.9,11.1484 h 40.37 c 0.23,12.3516 -2.27,21.5117 -7.51,27.5 -5.24,5.977 -12.39,8.973 -21.45,8.973 m 231.68,-12.332 c 2.18,0 4.04,-0.532 5.59,-1.602 1.55,-1.0702 2.67,-2.5781 3.35,-4.5038 0.69,-1.9336 1.03,-6.1797 1.03,-12.7539 v -31.086 h 16.12 V 89.793 c 0,4.7031 -0.29,8.3164 -0.89,10.836 -0.59,2.527 -1.64,4.781 -3.15,6.766 -1.52,1.988 -3.74,3.621 -6.68,4.902 -2.95,1.281 -6.2,1.926 -9.75,1.926 -8.07,0 -14.76,-3.446 -20.07,-10.325 v 8.95 h -14.97 V 51.9453 h 16.11 v 27.582 c 0,6.8047 0.42,11.4688 1.24,13.9922 0.82,2.5235 2.34,4.5508 4.56,6.0821 2.22,1.5274 4.72,2.2894 7.51,2.2894 m -128.97,10.957 V 51.9453 h 16.11 v 60.9027 h -16.11 m -208.34,23.164 V 51.9453 h 31.95 c 6.26,0 11.27,0.5938 15.01,1.7813 5.01,1.6015 8.99,3.8398 11.93,6.707 3.91,3.7891 6.91,8.7344 9,14.8516 1.73,5.0078 2.59,10.9726 2.59,17.8906 0,7.8792 -0.92,14.4962 -2.76,19.8752 -1.83,5.363 -4.51,9.906 -8.02,13.617 -3.52,3.703 -7.74,6.285 -12.68,7.738 -3.66,1.071 -9,1.606 -16,1.606 h -31.02 m 208.34,0 v -14.907 h 16.11 v 14.907 h -16.11 m 361.1,-72.7112 c -4.62,0 -8.33,2.1406 -11.12,6.4219 -1.99,3.0195 -2.99,7.6875 -2.99,13.9882 0,6.1211 1.29,10.6758 3.85,13.6758 2.56,3.0003 5.77,4.5043 9.63,4.5043 3.94,0 7.17,-1.539 9.69,-4.6176 2.52,-3.0781 3.78,-8.0898 3.78,-15.0468 0,-6.5391 -1.25,-11.3321 -3.75,-14.3633 -2.51,-3.0469 -5.53,-4.5625 -9.09,-4.5625 m -102.64,0 c -4.67,0 -8.3,2.1055 -10.91,6.3086 -1.79,2.9023 -2.69,7.6054 -2.69,14.1015 0,6.043 1.29,10.5821 3.87,13.625 2.58,3.0351 5.79,4.5551 9.61,4.5551 3.94,0 7.16,-1.539 9.69,-4.6176 2.52,-3.0781 3.78,-8.1093 3.78,-15.1054 0,-6.2735 -1.29,-10.9805 -3.9,-14.1367 -2.6,-3.1524 -5.75,-4.7305 -9.45,-4.7305 m -202.27,1.6601 c -3.66,0 -6.75,1.5 -9.26,4.5079 -2.5,2.9921 -3.75,7.7265 -3.75,14.1914 0,6.1523 1.25,10.7265 3.75,13.7265 2.51,3.0003 5.69,4.5043 9.55,4.5043 3.98,0 7.27,-1.528 9.87,-4.5863 2.59,-3.0586 3.9,-7.7422 3.9,-14.0508 0,-6.0391 -1.36,-10.5976 -4.07,-13.6719 -2.72,-3.082 -6.05,-4.6211 -9.99,-4.6211 m -234.88,1.1485 h -12.67 v 55.6836 h 7.63 c 6.91,0 11.56,-0.27 13.92,-0.805 3.18,-0.687 5.8,-2.008 7.86,-3.961 2.07,-1.945 3.67,-4.66 4.82,-8.14 1.15,-3.477 1.72,-8.465 1.72,-14.9651 0,-6.4961 -0.57,-11.6328 -1.72,-15.3906 -1.15,-3.7735 -2.63,-6.4766 -4.44,-8.1172 -1.82,-1.6485 -4.1,-2.8125 -6.85,-3.5 -2.11,-0.5352 -5.53,-0.8047 -10.27,-0.8047 m 383.92,21.5078 h -24.08 c -0.04,4.3906 1.09,7.875 3.38,10.4336 2.3,2.5622 5.2,3.8402 8.72,3.8402 3.29,0 6.08,-1.215 8.37,-3.6371 2.3,-2.4336 3.5,-5.9766 3.61,-10.6367 m -294.98,0 h -24.08 c -0.04,4.3906 1.09,7.875 3.38,10.4336 2.29,2.5622 5.2,3.8402 8.72,3.8402 3.28,0 6.08,-1.215 8.37,-3.6371 2.29,-2.4336 3.5,-5.9766 3.61,-10.6367 m 1012,10.4336 c 1.25,9.4612 4.7,22.0822 12.52,22.0822 4.32,0 5.55,-5.586 5.55,-9.324 0,-3.973 -1.27,-7.442 -5.47,-8.766 l -12.6,-3.9922 m -80.44,0 c 1.24,9.4612 4.69,22.0822 12.51,22.0822 4.34,0 5.55,-5.586 5.55,-9.324 0,-3.973 -1.26,-7.442 -5.46,-8.766 l -12.6,-3.9922 m -227.23,0 c 1.25,9.4612 4.69,22.0822 12.51,22.0822 4.34,0 5.55,-5.586 5.55,-9.324 0,-3.973 -1.26,-7.442 -5.47,-8.766 l -12.59,-3.9922" />
    </clipPath>
    <radialGradient
       id="radialGradient3788"
       spreadMethod="pad"
       gradientTransform="matrix(3827.6001,0,0,-3077.5584,2916.6667,2041.6667)"
       gradientUnits="userSpaceOnUse"
       r="1"
       cy="0"
       cx="0"
       fy="0"
       fx="0">
      <stop
         id="stop3782"
         offset="0"
         style="stop-opacity:1;stop-color:#ffffff" />
      <stop
         id="stop3784"
         offset="0.72911181"
         style="stop-opacity:1;stop-color:#ffffff" />
      <stop
         id="stop3786"
         offset="1"
         style="stop-opacity:1;stop-color:#d3d2d2" />
    </radialGradient>
  </defs>
  <metadata
     id="metadata4258">
    <rdf:RDF>
      <cc:Work
         rdf:about="">
        <dc:format>image/svg+xml</dc:format>
        <dc:type
           rdf:resource="http://purl.org/dc/dcmitype/StillImage" />
        <dc:title></dc:title>
      </cc:Work>
    </rdf:RDF>
  </metadata>
  <path
     d="m 26.62432,26.109276 c 0,2.261448 -1.833881,4.094481 -4.094481,4.094481 -2.261447,0 -4.095327,-1.833033 -4.095327,-4.094481 v -9.531773 c 0,-2.261447 1.83388,-4.095326 4.095327,-4.095326 2.2606,0 4.094481,1.833879 4.094481,4.095326 z m 4.2291,-26.11204634 H 14.206259 c -7.8596071,0 -14.23162011,6.37116704 -14.23162011,14.23077334 v 37.322763 c 0,12.45624 10.09819311,22.55435 22.55520011,22.55435 12.456161,0 22.554348,-10.09811 22.554348,-22.55435 V 14.228003 c 0,-7.8596063 -6.371161,-14.23077334 -14.230767,-14.23077334"
     style="fill:#ffffff;fill-opacity:1;fill-rule:nonzero;stroke:none;stroke-width:0.08466667"
     id="path3798"
     inkscape:connector-curvature="0" />
  <path
     sodipodi:type="star"
     style="fill:#231f20;fill-opacity:1;stroke-width:0.26458335"
     id="path4544"
     sodipodi:sides="3"
     sodipodi:cx="22.529415"
     sodipodi:cy="8.9795051"
     sodipodi:r1="3.2441194"
     sodipodi:r2="1.6220597"
     sodipodi:arg1="0.52359878"
     sodipodi:arg2="1.5707963"
     inkscape:flatsided="false"
     inkscape:rounded="0"
     inkscape:randomized="0"
     d="m 25.338905,10.601565 -2.80949,0 -2.80949,0 1.404745,-2.4330893 1.404745,-2.4330896 1.404745,2.4330895 z"
     inkscape:transform-center-y="-0.81102957" />
  <path
     sodipodi:type="star"
     style="fill:#231f20;fill-opacity:1;stroke-width:0.26458335"
     id="path4544-1"
     sodipodi:sides="3"
     sodipodi:cx="22.529415"
     sodipodi:cy="-33.702692"
     sodipodi:r1="3.2441196"
     sodipodi:r2="1.6220598"
     sodipodi:arg1="0.52359878"
     sodipodi:arg2="1.5707963"
     inkscape:flatsided="false"
     inkscape:rounded="0"
     inkscape:randomized="0"
     d="m 25.338905,-32.08063 -2.80949,0 -2.80949,0 1.404745,-2.43309 1.404745,-2.43309 1.404745,2.43309 z"
     inkscape:transform-center-y="0.81103051"
     transform="scale(1,-1)" />
</svg>
